<svg xmlns="http://www.w3.org/2000/svg" viewBox="0 0 238.32 59.04"><defs><style>.cls-1{fill:#1d1d1b;}</style></defs><g id="Слой_2" data-name="Слой 2"><g id="Слой_1-2" data-name="Слой 1"><path class="cls-1" d="M26.5,59,5.76,2.59,0,1.58V0H21.1V1.58l-6.77.87L30.17,45.58,45.72,4.82,37.44,1.58V0H52.92V1.58L47.66,4.75,27.07,59Z"/><path class="cls-1" d="M58.54,55.91A17.76,17.76,0,0,1,51.7,49.1,20,20,0,0,1,49.18,39a20,20,0,0,1,2.48-10.11,17.79,17.79,0,0,1,6.7-6.77,18.52,18.52,0,0,1,9.39-2.41,16.4,16.4,0,0,1,8.14,2,14.47,14.47,0,0,1,5.61,5.58,16.83,16.83,0,0,1,2.09,8.17H57.1v7.13q0,6.35,2.84,10.26a9.54,9.54,0,0,0,8.24,3.93A14.46,14.46,0,0,0,77,53.93a11.53,11.53,0,0,0,4.68-7.27H83.3a13.48,13.48,0,0,1-5.11,8.49,15.89,15.89,0,0,1-10,3.17A19.4,19.4,0,0,1,58.54,55.91ZM75.67,33.62q0-6.25-1.94-9.32a6.66,6.66,0,0,0-6-3.06,9,9,0,0,0-7.49,3.38,15.92,15.92,0,0,0-3,9Z"/><path class="cls-1" d="M88.42,56.16l5-.72v-33l-5-.72V20.3h12.24v7.78a21.56,21.56,0,0,1,6.26-6.16,14.33,14.33,0,0,1,7.78-2.26c3.45,0,6.18.86,8.17,2.59s3,4.29,3,7.7V55.44l5.05.72V57.6H114.33V56.16l4.33-.72V30.1a9.62,9.62,0,0,0-1.52-5.8,5.42,5.42,0,0,0-4.68-2.05,10.15,10.15,0,0,0-6.37,2.41,25.88,25.88,0,0,0-5.43,5.94V55.44l4.32.72V57.6H88.42Z"/><path class="cls-1" d="M134.21,57.6V56.16l5-.72V22.54l-5-.72V20.38h12.24V55.44l5,.72V57.6Zm4.17-47a4.61,4.61,0,0,1-1.44-3.42,4.54,4.54,0,0,1,1.41-3.39,4.8,4.8,0,0,1,3.49-1.36,4.51,4.51,0,0,1,3.31,1.36,4.62,4.62,0,0,1,1.37,3.39,4.74,4.74,0,0,1-1.37,3.42,4.47,4.47,0,0,1-3.31,1.4A4.79,4.79,0,0,1,138.38,10.55Z"/><path class="cls-1" d="M162.25,55.94c-1.9-1.58-2.84-4.1-2.84-7.56V22.46l-5.12-.72V20.3h5.12v-6l7.2-1.8V20.3H176v1.44l-9.36.72V48.24q0,7.63,5.47,7.63a6.62,6.62,0,0,0,2.19-.36,9.36,9.36,0,0,0,1.66-.72,5.65,5.65,0,0,0,.76-.5l.93,1.15a11.3,11.3,0,0,1-7.77,2.88A11.45,11.45,0,0,1,162.25,55.94Z"/><path class="cls-1" d="M187.23,55.94q-2.83-2.37-2.84-7.56V22.46l-5.11-.72V20.3h5.11v-6l7.2-1.8V20.3H201v1.44l-9.36.72V48.24q0,7.63,5.47,7.63a6.72,6.72,0,0,0,2.2-.36,9.56,9.56,0,0,0,1.65-.72,5.65,5.65,0,0,0,.76-.5l.93,1.15a11.3,11.3,0,0,1-7.77,2.88A11.45,11.45,0,0,1,187.23,55.94Z"/><path class="cls-1" d="M213.26,55.91a17.76,17.76,0,0,1-6.84-6.81A20,20,0,0,1,203.9,39a20.09,20.09,0,0,1,2.48-10.11,17.79,17.79,0,0,1,6.7-6.77,18.56,18.56,0,0,1,9.4-2.41,16.39,16.39,0,0,1,8.13,2,14.56,14.56,0,0,1,5.62,5.58,16.94,16.94,0,0,1,2.09,8.17h-26.5v7.13q0,6.35,2.84,10.26a9.56,9.56,0,0,0,8.25,3.93,14.43,14.43,0,0,0,8.78-2.81,11.45,11.45,0,0,0,4.68-7.27H238a13.56,13.56,0,0,1-5.11,8.49,15.93,15.93,0,0,1-10,3.17A19.41,19.41,0,0,1,213.26,55.91ZM230.4,33.62q0-6.25-2-9.32a6.65,6.65,0,0,0-6-3.06,9,9,0,0,0-7.48,3.38,15.85,15.85,0,0,0-3,9Z"/></g></g></svg>